<?xml version="1.0" encoding="UTF-8"?>
<svg id="Layer_1" data-name="Layer 1" xmlns="http://www.w3.org/2000/svg" viewBox="0 0 257.89 226.37">
  <defs>
    <style>
      .cls-1 {
        fill: #fff;
      }
    </style>
  </defs>
  <path class="cls-1" d="M123.27,155.95c-.6-.3-1.32-.68-2.14-1.14-11.25-6.25-20.22-15.9-25.85-27.47-2.65-5.45-5.4-11.94-6.42-18.98-1.33-9.25-.82-23.7-.15-28.48.61-4.44,1.35-8.21,1.22-12.36-.31-9.57-2.99-24.54-15.16-36.14,0,0,25.94,1.87,40.82,32.26,11.12,22.71,3.96,39.82,2.37,57.9-.76,8.63.29,17.86,2.85,26.37.68,2.25,1.59,4.88,3.16,7.23.32.47-.19,1.06-.7.8Z"/>
  <path class="cls-1" d="M112.9,156.97c.72.25,1.19-.75.54-1.15-8.17-4.95-22.82-15.95-30.61-34.65-4.27-10.26-6.63-18.62-7.43-25.69-1.4-12.29-1.3-17.69,2.98-33.71.07-.26.02-.45.14-.81.26-.76.35-1.75,1.13-3.26.62-1.21,1.02-.97-.41-5.49-1.56-4.94-13.59-32.29-47.67-52.22,0,0,10.36,9.06,15.44,26.47.46,1.58.65,3.23,1.04,4.83.67,2.71,1.46,7.85.18,14.18-.78,3.86-1.58,7.71-2.2,11.59-.09.56-.18,1.13-.27,1.71-2.43,15.08.38,29.89,5.97,44.25.9,2.31,2.68,5.96,3.9,8.13.4.71.79,1.42,1.17,2.15,2.11,4.08,8.85,16.88,23.52,27.31,11.84,8.43,24.98,13.71,32.59,16.34Z"/>
  <path class="cls-1" d="M92.01,149.66c.5.07.67-.63.2-.8-3.28-1.2-8.42-3.41-15.78-7.39-14.32-7.74-24.7-21.79-32.87-35.48-.01-.02-.03-.05-.04-.07-3.6-6.04-6.17-11.93-7.74-19.33-.79-3.74-.93-7.68-1.17-11.57,0,0-5.44-18.84-34.61-28.9,0,0,7.06,5.9,10.89,14.92,1.42,3.34,2.43,6.56,3.21,10.1,1.09,4.91,3.64,14.96,12.11,33.42.45.99,1.1,1.88,1.61,2.84.59,1.12,1.62,2.97,3.13,5.3,9.39,14.51,23.06,25.93,39.39,31.97,6.32,2.34,13.7,3.91,21.67,5Z"/>
  <path class="cls-1" d="M122.54,161.82c.4,0,.58.54.27.81-1.75,1.57-4.56,6.82,2.49,23.23,3.94,9.17,2.85,16.73.31,22.39-3.58,7.95-10.71,13.33-18.79,14.71-.91.15-1.89.29-2.95.41,0,0,.29-.16.77-.49,7.3-4.95,9.85-15.08,6.13-23.48-2.03-4.59-4.79-12.08-4.11-17.67.98-8.11,9.27-20.07,15.88-19.92Z"/>
  <path class="cls-1" d="M119.37,161.23c-4.02,2.46-22.73,15.66-10.6,41.96,1.18,2.55.94,5.63-.6,7.93-3.69,5.54-12.12,14.48-28.41,15.25,0,0,.86-.4,2.17-1.26,8.48-5.59,13.24-16.23,12.36-27.17-.27-3.33-.46-8-.05-12.77.75-8.79,4.97-16.88,11.81-21.33,3.48-2.26,7.91-3.83,13.21-3.16.25.03.32.41.1.55Z"/>
  <path class="cls-1" d="M105.26,161.44c.37-.05.5.46.16.61-4.64,2.01-15.01,8.74-14.42,28.51.04,1.19-.13,2.38-.56,3.48-1.28,3.31-6.86,8.59-19.09,17.91,0,0,5.31-5.35,5.8-14.9.24-4.59,1.03-9.15,2.64-13.45,1.95-5.19,5.12-11.37,9.97-15.18,6.5-5.11,12.37-6.57,15.49-6.98Z"/>
  <path class="cls-1" d="M98.11,161.48s-12.66,4.97-16.86,13.18c-1.58,3.09-2.68,5.52-3.99,7.1-1.67,2.01-3.99,3.35-6.55,3.85-3.51.69-9.85,1.65-15.28.94,0,0,9.04-1.49,13.67-9.83.33-.6,1.56-3.6,1.86-4.22,2.23-4.59,3.94-5.74,6.14-7.7,0,0,8.07-7.2,21.01-3.32Z"/>
  <path class="cls-1" d="M95.22,160.73s-21.52-11.48-30.74,15.41c-.66,1.92-2.16,3.46-4.1,4.06-2.94.91-8.09,1.4-16.51-.79,0,0,10.68-1.35,14.17-10.78,0,0,10.67-25.12,37.18-7.89Z"/>
  <path class="cls-1" d="M83.72,154.75s-14.33-7.73-25.83,8.54c0,0-11.35,2.67-16.84-6.43,0,0,.1.03.28.08,5.13,1.46,10.63.17,14.66-3.32,1.32-1.14,3.41-2.63,6.61-4.19,4.81-2.34,10.46-2.59,15.29-.31,2.43,1.15,4.72,2.91,5.82,5.63Z"/>
  <path class="cls-1" d="M134.62,155.95c.6-.3,1.32-.68,2.14-1.14,11.25-6.25,20.22-15.9,25.85-27.47,2.65-5.45,5.4-11.94,6.42-18.98,1.33-9.25.82-23.7.15-28.48-.61-4.44-1.35-8.21-1.22-12.36.31-9.57,2.99-24.54,15.16-36.14,0,0-25.94,1.87-40.82,32.26-11.12,22.71-3.96,39.82-2.37,57.9.76,8.63-.29,17.86-2.85,26.37-.68,2.25-1.59,4.88-3.16,7.23-.32.47.19,1.06.7.8Z"/>
  <path class="cls-1" d="M144.99,156.97c-.72.25-1.19-.75-.54-1.15,8.17-4.95,22.82-15.95,30.61-34.65,4.27-10.26,6.63-18.62,7.43-25.69,1.4-12.29,1.3-17.69-2.98-33.71-.07-.26-.02-.45-.14-.81-.26-.76-.35-1.75-1.13-3.26-.62-1.21-1.02-.97.41-5.49C180.22,47.28,192.24,19.93,226.32,0,226.32,0,215.96,9.06,210.88,26.47c-.46,1.58-.65,3.23-1.04,4.83-.67,2.71-1.46,7.85-.18,14.18.78,3.86,1.58,7.71,2.2,11.59.09.56.18,1.13.27,1.71,2.43,15.08-.38,29.89-5.97,44.25-.9,2.31-2.68,5.96-3.9,8.13-.4.71-.79,1.42-1.17,2.15-2.11,4.08-8.85,16.88-23.52,27.31-11.84,8.43-24.98,13.71-32.59,16.34Z"/>
  <path class="cls-1" d="M165.88,149.66c-.5.07-.67-.63-.2-.8,3.28-1.2,8.42-3.41,15.78-7.39,14.32-7.74,24.7-21.79,32.87-35.48.01-.02.03-.05.04-.07,3.6-6.04,6.17-11.93,7.74-19.33.79-3.74.93-7.68,1.17-11.57,0,0,5.44-18.84,34.61-28.9,0,0-7.06,5.9-10.89,14.92-1.42,3.34-2.43,6.56-3.21,10.1-1.09,4.91-3.64,14.96-12.11,33.42-.45.99-1.1,1.88-1.61,2.84-.59,1.12-1.62,2.97-3.13,5.3-9.39,14.51-23.06,25.93-39.39,31.97-6.32,2.34-13.7,3.91-21.67,5Z"/>
  <path class="cls-1" d="M135.35,161.82c-.4,0-.58.54-.27.81,1.75,1.57,4.56,6.82-2.49,23.23-3.94,9.17-2.85,16.73-.31,22.39,3.58,7.95,10.71,13.33,18.79,14.71.91.15,1.89.29,2.95.41,0,0-.29-.16-.77-.49-7.3-4.95-9.85-15.08-6.13-23.48,2.03-4.59,4.79-12.08,4.11-17.67-.98-8.11-9.27-20.07-15.88-19.92Z"/>
  <path class="cls-1" d="M138.52,161.23c4.02,2.46,22.73,15.66,10.6,41.96-1.18,2.55-.94,5.63.6,7.93,3.69,5.54,12.12,14.48,28.41,15.25,0,0-.86-.4-2.17-1.26-8.48-5.59-13.24-16.23-12.36-27.17.27-3.33.46-8,.05-12.77-.75-8.79-4.97-16.88-11.81-21.33-3.48-2.26-7.91-3.83-13.21-3.16-.25.03-.32.41-.1.55Z"/>
  <path class="cls-1" d="M152.63,161.44c-.37-.05-.5.46-.16.61,4.64,2.01,15.01,8.74,14.42,28.51-.04,1.19.13,2.38.56,3.48,1.28,3.31,6.86,8.59,19.09,17.91,0,0-5.31-5.35-5.8-14.9-.24-4.59-1.03-9.15-2.64-13.45-1.95-5.19-5.12-11.37-9.97-15.18-6.5-5.11-12.37-6.57-15.49-6.98Z"/>
  <path class="cls-1" d="M159.78,161.48s12.66,4.97,16.86,13.18c1.58,3.09,2.68,5.52,3.99,7.1,1.67,2.01,3.99,3.35,6.55,3.85,3.51.69,9.85,1.65,15.28.94,0,0-9.04-1.49-13.67-9.83-.33-.6-1.56-3.6-1.86-4.22-2.23-4.59-3.94-5.74-6.14-7.7,0,0-8.07-7.2-21.01-3.32Z"/>
  <path class="cls-1" d="M162.67,160.73s21.52-11.48,30.74,15.41c.66,1.92,2.16,3.46,4.1,4.06,2.94.91,8.09,1.4,16.51-.79,0,0-10.68-1.35-14.17-10.78,0,0-10.67-25.12-37.18-7.89Z"/>
  <path class="cls-1" d="M174.17,154.75s14.33-7.73,25.83,8.54c0,0,11.35,2.67,16.84-6.43,0,0-.1.03-.28.08-5.13,1.46-10.63.17-14.66-3.32-1.32-1.14-3.41-2.63-6.61-4.19-4.81-2.34-10.46-2.59-15.29-.31-2.43,1.15-4.72,2.91-5.82,5.63Z"/>
</svg>