<?xml version="1.0" encoding="iso-8859-1"?>
<!-- Uploaded to: SVG Repo, www.svgrepo.com, Generator: SVG Repo Mixer Tools -->
<svg fill="#000000" height="800px" width="800px" version="1.1" id="Layer_1" xmlns="http://www.w3.org/2000/svg" xmlns:xlink="http://www.w3.org/1999/xlink" 
	 viewBox="0 0 512.001 512.001" xml:space="preserve">
<g>
	<g>
		<path d="M215.14,349.075c-0.936-0.513-1.817-1.157-2.609-1.948l-46.572-46.572c-1.178-1.178-2.038-2.551-2.598-4.013
			c-22.685,17.19-52.288,23.01-80.879,15.543c-5.469-1.428-11.037-2.126-16.569-2.126c-17.278,0-34.205,6.791-46.673,19.258
			C1.344,347.113-4.714,374.075,3.806,397.907l20.107,56.243c5.681,15.888,18.049,28.257,33.936,33.935l56.244,20.108
			c23.831,8.522,50.795,2.462,68.689-15.433c16.46-16.458,23.025-40.69,17.135-63.239
			C192.495,401.108,198.202,371.704,215.14,349.075z M129.134,446.768c-2.242,2.242-5.183,3.364-8.123,3.364
			s-5.879-1.122-8.123-3.364l-46.57-46.57c-4.486-4.487-4.486-11.76,0-16.247c4.486-4.485,11.76-4.485,16.246,0l46.572,46.572
			C133.621,435.008,133.621,442.281,129.134,446.768z"/>
	</g>
</g>
<g>
	<g>
		<path d="M512.001,50.906L461.097,0.002L433.639,27.46l-11.241-11.24c-1.833-1.833-4.056-3.026-6.401-3.61
			c-4.541-1.133-9.544,0.06-13.094,3.61c-3.55,3.552-4.743,8.553-3.611,13.094c0.585,2.345,1.778,4.569,3.612,6.402l11.24,11.239
			l-13.236,13.236l-11.24-11.241c-1.833-1.832-4.057-3.026-6.402-3.609c-4.54-1.133-9.543,0.06-13.093,3.609
			c-3.55,3.55-4.744,8.553-3.612,13.096c0.585,2.345,1.778,4.568,3.611,6.401l11.24,11.241l-25.137,25.137l-11.24-11.241
			c-1.833-1.832-4.057-3.024-6.401-3.609c-4.541-1.133-9.543,0.06-13.094,3.609c-3.55,3.55-4.744,8.554-3.611,13.096
			c0.585,2.343,1.778,4.567,3.611,6.401l11.24,11.241l-38.032,38.032l-11.24-11.241c-1.833-1.832-4.057-3.024-6.402-3.609
			c-4.541-1.131-9.543,0.06-13.093,3.609c-3.55,3.55-4.744,8.554-3.611,13.096c0.585,2.343,1.778,4.567,3.611,6.401l11.24,11.241
			l-18.194,18.194l-11.24-11.241c-1.833-1.832-4.056-3.024-6.401-3.609c-4.541-1.133-9.543,0.06-13.094,3.609
			c-3.55,3.55-4.744,8.554-3.611,13.096c0.585,2.343,1.778,4.567,3.611,6.401l11.236,11.241l-62.536,62.536
			c1.148,0.548,2.229,1.284,3.18,2.235l46.572,46.572c0.556,0.556,1.044,1.157,1.462,1.788l215.644-215.645
			c2.227,1.393,4.76,2.102,7.299,2.102c3.528,0,7.055-1.346,9.747-4.037l15.869-15.869c4.629-4.629,5.266-11.724,1.936-17.047
			L512.001,50.906z"/>
	</g>
</g>
</svg>